<?xml version="1.0" encoding="UTF-8"?>
<svg id="Layer_1" xmlns="http://www.w3.org/2000/svg" version="1.1" viewBox="0 0 841.89 595.28">
  <!-- Generator: Adobe Illustrator 29.1.0, SVG Export Plug-In . SVG Version: 2.1.0 Build 142)  -->
  <defs>
    <style>
      .st0 {
        fill: #231f20;
      }
    </style>
  </defs>
  <g>
    <path class="st0" d="M195.07,391.37c-1.58,0-3.14-.27-4.66-.82-1.52-.54-2.91-1.38-4.16-2.51l2.7-3.24c.95.77,1.93,1.39,2.93,1.84,1,.46,2.09.68,3.28.68.95,0,1.69-.17,2.21-.52.52-.35.79-.83.79-1.44v-.06c0-.3-.05-.56-.16-.79-.11-.23-.32-.44-.63-.64-.31-.2-.73-.4-1.28-.59-.55-.2-1.26-.41-2.13-.62-1.05-.26-2.01-.54-2.86-.86-.85-.32-1.58-.71-2.17-1.17-.6-.46-1.06-1.04-1.39-1.74-.33-.69-.49-1.55-.49-2.58v-.06c0-.95.18-1.81.53-2.57.35-.76.85-1.42,1.49-1.97.64-.56,1.4-.98,2.29-1.28.89-.3,1.87-.45,2.94-.45,1.52,0,2.93.23,4.2.68,1.28.46,2.45,1.11,3.52,1.96l-2.38,3.45c-.93-.63-1.84-1.13-2.73-1.5-.89-.37-1.78-.55-2.67-.55s-1.56.17-2,.52c-.45.35-.67.78-.67,1.29v.06c0,.34.06.63.19.88.13.25.36.47.7.67.34.2.8.39,1.38.56.59.18,1.32.39,2.22.62,1.05.28,1.99.59,2.81.93.82.35,1.52.76,2.08,1.25.57.48.99,1.05,1.28,1.71s.43,1.44.43,2.35v.06c0,1.03-.19,1.95-.56,2.75-.37.8-.9,1.48-1.56,2.02-.67.54-1.47.96-2.39,1.25-.93.29-1.96.43-3.08.43Z"/>
    <path class="st0" d="M213.31,374.5h-6.33v-4.22h17.23v4.22h-6.33v16.57h-4.57v-16.57Z"/>
    <path class="st0" d="M229.52,370.28h9.5c2.63,0,4.65.7,6.06,2.11,1.19,1.19,1.78,2.77,1.78,4.75v.06c0,1.68-.41,3.06-1.23,4.11-.82,1.06-1.9,1.84-3.22,2.33l5.08,7.43h-5.35l-4.45-6.65h-3.59v6.65h-4.57v-20.79ZM238.73,380.38c1.13,0,1.99-.27,2.6-.8.6-.53.91-1.25.91-2.14v-.06c0-.99-.32-1.73-.95-2.23-.63-.49-1.51-.74-2.64-.74h-4.54v5.97h4.63Z"/>
    <path class="st0" d="M261.48,391.4c-2.79,0-4.99-.77-6.59-2.32-1.6-1.55-2.41-3.85-2.41-6.92v-11.88h4.57v11.76c0,1.7.4,2.99,1.19,3.85.79.86,1.89,1.29,3.3,1.29s2.5-.42,3.3-1.25c.79-.83,1.19-2.08,1.19-3.74v-11.91h4.57v11.73c0,1.58-.21,2.96-.64,4.13-.43,1.17-1.03,2.14-1.83,2.93-.79.78-1.75,1.37-2.88,1.75-1.13.39-2.39.58-3.77.58Z"/>
    <path class="st0" d="M286.81,391.43c-1.52,0-2.94-.28-4.25-.83-1.31-.56-2.44-1.31-3.39-2.27-.95-.96-1.69-2.09-2.23-3.4s-.8-2.7-.8-4.19v-.06c0-1.49.27-2.88.8-4.17s1.28-2.44,2.23-3.42c.95-.98,2.09-1.75,3.42-2.32,1.33-.56,2.79-.85,4.4-.85.97,0,1.86.08,2.66.24.8.16,1.53.38,2.18.65.65.28,1.26.61,1.81,1.01.55.4,1.07.83,1.54,1.31l-2.91,3.36c-.81-.73-1.64-1.31-2.48-1.72s-1.79-.62-2.84-.62c-.87,0-1.68.17-2.42.51-.74.34-1.38.8-1.92,1.4-.53.59-.95,1.28-1.25,2.06-.3.78-.45,1.62-.45,2.51v.06c0,.89.15,1.73.45,2.52.3.79.71,1.49,1.23,2.08.52.59,1.16,1.06,1.9,1.41.74.35,1.56.52,2.45.52,1.19,0,2.19-.22,3.01-.65.82-.44,1.64-1.03,2.45-1.78l2.91,2.94c-.53.57-1.09,1.09-1.66,1.54s-1.2.85-1.89,1.17-1.43.57-2.24.74c-.81.17-1.72.25-2.73.25Z"/>
    <path class="st0" d="M305.64,374.5h-6.33v-4.22h17.23v4.22h-6.33v16.57h-4.57v-16.57Z"/>
    <path class="st0" d="M330.53,391.4c-2.79,0-4.99-.77-6.59-2.32-1.6-1.55-2.41-3.85-2.41-6.92v-11.88h4.57v11.76c0,1.7.4,2.99,1.19,3.85.79.86,1.89,1.29,3.3,1.29s2.5-.42,3.3-1.25c.79-.83,1.19-2.08,1.19-3.74v-11.91h4.57v11.73c0,1.58-.21,2.96-.64,4.13-.43,1.17-1.03,2.14-1.83,2.93-.79.78-1.75,1.37-2.88,1.75-1.13.39-2.39.58-3.77.58Z"/>
    <path class="st0" d="M346.12,370.28h9.5c2.63,0,4.65.7,6.06,2.11,1.19,1.19,1.78,2.77,1.78,4.75v.06c0,1.68-.41,3.06-1.23,4.11-.82,1.06-1.9,1.84-3.22,2.33l5.08,7.43h-5.35l-4.45-6.65h-3.59v6.65h-4.57v-20.79ZM355.33,380.38c1.13,0,1.99-.27,2.6-.8.6-.53.91-1.25.91-2.14v-.06c0-.99-.32-1.73-.95-2.23-.63-.49-1.51-.74-2.64-.74h-4.54v5.97h4.63Z"/>
    <path class="st0" d="M376.54,370.13h4.22l8.91,20.94h-4.78l-1.9-4.66h-8.79l-1.9,4.66h-4.66l8.91-20.94ZM381.35,382.37l-2.76-6.74-2.76,6.74h5.52Z"/>
    <path class="st0" d="M394.68,370.28h4.57v16.66h10.37v4.13h-14.94v-20.79Z"/>
    <path class="st0" d="M425.6,370.28h8.11c1.62,0,3.11.26,4.47.79s2.53,1.25,3.5,2.18c.98.93,1.74,2.02,2.27,3.28.53,1.26.8,2.62.8,4.08v.06c0,1.46-.27,2.83-.8,4.1-.54,1.27-1.29,2.37-2.27,3.3-.98.93-2.15,1.66-3.5,2.2s-2.85.8-4.47.8h-8.11v-20.79ZM433.71,386.94c.93,0,1.78-.15,2.55-.45.77-.3,1.43-.72,1.97-1.28s.97-1.21,1.28-1.96c.31-.75.46-1.59.46-2.53v-.06c0-.91-.15-1.75-.46-2.53s-.73-1.44-1.28-1.99-1.2-.98-1.97-1.29c-.77-.31-1.62-.46-2.55-.46h-3.53v12.53h3.53Z"/>
    <path class="st0" d="M450.64,370.28h15.65v4.07h-11.14v4.22h9.8v4.07h-9.8v4.37h11.29v4.07h-15.8v-20.79Z"/>
    <path class="st0" d="M479.77,391.37c-1.58,0-3.14-.27-4.66-.82-1.52-.54-2.91-1.38-4.16-2.51l2.7-3.24c.95.77,1.93,1.39,2.93,1.84,1,.46,2.09.68,3.28.68.95,0,1.69-.17,2.21-.52.52-.35.79-.83.79-1.44v-.06c0-.3-.06-.56-.16-.79-.11-.23-.32-.44-.63-.64-.31-.2-.74-.4-1.28-.59-.55-.2-1.26-.41-2.13-.62-1.05-.26-2.01-.54-2.86-.86-.85-.32-1.58-.71-2.17-1.17-.59-.46-1.06-1.04-1.38-1.74s-.49-1.55-.49-2.58v-.06c0-.95.18-1.81.53-2.57s.85-1.42,1.49-1.97c.64-.56,1.4-.98,2.29-1.28.89-.3,1.87-.45,2.94-.45,1.52,0,2.93.23,4.2.68s2.45,1.11,3.52,1.96l-2.38,3.45c-.93-.63-1.84-1.13-2.73-1.5s-1.78-.55-2.67-.55-1.56.17-2,.52c-.45.35-.67.78-.67,1.29v.06c0,.34.06.63.19.88.13.25.36.47.7.67.34.2.8.39,1.39.56.58.18,1.32.39,2.22.62,1.05.28,1.99.59,2.81.93.82.35,1.52.76,2.08,1.25.57.48.99,1.05,1.28,1.71.29.65.43,1.44.43,2.35v.06c0,1.03-.19,1.95-.56,2.75-.38.8-.9,1.48-1.56,2.02-.67.54-1.47.96-2.4,1.25s-1.96.43-3.08.43Z"/>
    <path class="st0" d="M493.38,370.28h4.57v20.79h-4.57v-20.79Z"/>
    <path class="st0" d="M514.97,391.43c-1.62,0-3.1-.27-4.44-.8-1.34-.53-2.49-1.28-3.45-2.23-.96-.95-1.71-2.08-2.24-3.39s-.8-2.73-.8-4.28v-.06c0-1.49.27-2.88.82-4.17s1.3-2.44,2.27-3.42,2.12-1.75,3.45-2.32,2.78-.85,4.37-.85c.93,0,1.78.06,2.54.19s1.47.31,2.12.55,1.27.53,1.84.89,1.13.76,1.66,1.22l-2.88,3.48c-.4-.34-.79-.63-1.19-.89-.4-.26-.81-.47-1.23-.65-.43-.18-.89-.32-1.38-.41-.5-.1-1.04-.15-1.63-.15-.83,0-1.61.17-2.33.52-.72.35-1.36.81-1.9,1.4s-.97,1.27-1.28,2.05-.46,1.62-.46,2.52v.06c0,.95.15,1.83.46,2.63.31.8.74,1.5,1.31,2.1s1.23,1.06,1.99,1.38c.76.33,1.61.49,2.54.49,1.7,0,3.14-.42,4.31-1.26v-2.99h-4.6v-3.95h9.03v9.03c-1.07.91-2.34,1.69-3.82,2.33s-3.16.97-5.06.97Z"/>
    <path class="st0" d="M530.05,370.28h4.22l9.74,12.8v-12.8h4.51v20.79h-3.89l-10.07-13.22v13.22h-4.51v-20.79Z"/>
    <path class="st0" d="M566.05,370.28h4.57v16.66h10.37v4.13h-14.94v-20.79Z"/>
    <path class="st0" d="M593.37,370.13h4.22l8.91,20.94h-4.78l-1.9-4.66h-8.79l-1.9,4.66h-4.66l8.91-20.94ZM598.18,382.37l-2.76-6.74-2.76,6.74h5.52Z"/>
    <path class="st0" d="M611.52,370.28h9.64c2.39,0,4.2.61,5.43,1.84.95.95,1.42,2.13,1.42,3.53v.06c0,.59-.07,1.12-.22,1.57-.15.46-.34.87-.59,1.23s-.53.69-.86.97c-.33.28-.67.51-1.05.71,1.2.46,2.15,1.08,2.84,1.86.69.78,1.04,1.87,1.04,3.25v.06c0,.95-.18,1.78-.55,2.49-.37.71-.89,1.31-1.57,1.78-.68.47-1.5.83-2.46,1.07-.96.24-2.02.36-3.19.36h-9.87v-20.79ZM620.19,378.69c1.01,0,1.81-.17,2.41-.52.59-.35.89-.91.89-1.68v-.06c0-.69-.26-1.22-.77-1.59-.52-.37-1.26-.55-2.23-.55h-4.51v4.39h4.22ZM621.41,387.06c1.01,0,1.8-.18,2.38-.55s.86-.94.86-1.71v-.06c0-.69-.27-1.24-.8-1.65s-1.4-.61-2.58-.61h-5.29v4.57h5.44Z"/>
    <path class="st0" d="M642.2,391.37c-1.58,0-3.14-.27-4.66-.82-1.52-.54-2.91-1.38-4.16-2.51l2.7-3.24c.95.77,1.93,1.39,2.93,1.84,1,.46,2.09.68,3.28.68.95,0,1.69-.17,2.21-.52.52-.35.79-.83.79-1.44v-.06c0-.3-.06-.56-.16-.79-.11-.23-.32-.44-.63-.64-.31-.2-.74-.4-1.28-.59-.55-.2-1.26-.41-2.13-.62-1.05-.26-2.01-.54-2.86-.86-.85-.32-1.58-.71-2.17-1.17-.59-.46-1.06-1.04-1.38-1.74s-.49-1.55-.49-2.58v-.06c0-.95.18-1.81.53-2.57s.85-1.42,1.49-1.97c.64-.56,1.4-.98,2.29-1.28.89-.3,1.87-.45,2.94-.45,1.52,0,2.93.23,4.2.68s2.45,1.11,3.52,1.96l-2.38,3.45c-.93-.63-1.84-1.13-2.73-1.5s-1.78-.55-2.67-.55-1.56.17-2,.52c-.45.35-.67.78-.67,1.29v.06c0,.34.06.63.19.88.13.25.36.47.7.67.34.2.8.39,1.39.56.58.18,1.32.39,2.22.62,1.05.28,1.99.59,2.81.93.82.35,1.52.76,2.08,1.25.57.48.99,1.05,1.28,1.71.29.65.43,1.44.43,2.35v.06c0,1.03-.19,1.95-.56,2.75-.38.8-.9,1.48-1.56,2.02-.67.54-1.47.96-2.4,1.25s-1.96.43-3.08.43Z"/>
  </g>
  <path class="st0" d="M497.64,229.08c-4.09-9.8-10.04-18.26-17.83-25.36-7.8-7.1-17.37-12.62-28.72-16.56-11.35-3.94-24.29-5.91-38.8-5.91h-62.23v-.02h-93.19c-9.73,0-18.45,1.27-26.17,3.81-7.72,2.54-14.32,6.13-19.8,10.75-5.48,4.62-9.65,10.1-12.51,16.42-2.86,6.32-4.29,13.26-4.29,20.81v.46c0,8.32,1.58,15.3,4.75,20.92,3.16,5.63,7.49,10.33,12.97,14.1,5.48,3.78,11.93,6.86,19.34,9.25s15.44,4.59,24.09,6.59c5.56,1.23,10.07,2.43,13.55,3.58,3.47,1.16,6.25,2.35,8.34,3.58,2.08,1.23,3.51,2.5,4.28,3.81.77,1.31,1.16,2.82,1.16,4.51v.46c0,3.55-1.59,6.28-4.75,8.21-3.17,1.92-7.76,2.89-13.78,2.89-18.84,0-36.36-6.48-52.58-19.46l-25.01,29.94c10.04,9.01,21.58,15.77,34.63,20.28,13.05,4.5,26.83,6.76,41.34,6.76,9.88,0,18.84-1.19,26.87-3.58,8.03-2.39,14.9-5.85,20.61-10.4,5.71-4.55,10.15-10.06,13.32-16.53,3.16-6.47,4.75-13.87,4.75-22.2v-.46c0-7.55-1.39-14.06-4.17-19.54-2.78-5.47-6.8-10.13-12.04-13.99-5.25-3.85-11.62-7.13-19.11-9.83-7.49-2.7-15.87-5.04-25.13-7.05-5.56-1.23-10.15-2.42-13.78-3.58-3.63-1.15-6.48-2.31-8.57-3.47-2.09-1.16-3.55-2.43-4.4-3.82-.85-1.39-1.27-3-1.27-4.85v-.46c0-2.93,1.35-5.39,4.05-7.4,2.7-2.01,6.75-3.01,12.16-3.01h94.04v124.63h61.61c14.51,0,27.52-2.04,39.03-6.14,11.5-4.09,21.19-9.76,29.07-17.02,7.87-7.26,13.9-15.87,18.07-25.83,4.17-9.96,6.25-20.81,6.25-32.54v-.46c0-11.73-2.05-22.5-6.14-32.31ZM457.92,262.55c0,13.13-4.11,23.24-12.32,30.34-8.22,7.1-19.06,10.66-32.54,10.66h-18.37v-82.46h18.37c13.48,0,24.33,3.59,32.54,10.77,8.22,7.18,12.32,17.26,12.32,30.23v.46Z"/>
  <path class="st0" d="M525.65,180.85h44.94v122.76h78.52v39.38h-123.45v-162.14Z"/>
</svg>